<svg width="586" height="512" viewBox="0 0 586 512" fill="none" xmlns="http://www.w3.org/2000/svg">
<path d="M292.571 54.8571C171.314 54.8571 71.3143 145.6 56.6857 262.857C67.4286 258.514 79.0857 256 91.4286 256C121.714 256 146.286 280.571 146.286 310.857V457.143C146.286 487.429 121.714 512 91.4286 512C40.9143 512 0 471.086 0 420.571V402.286V347.429V292.571C0 130.971 130.971 0 292.571 0C454.171 0 585.143 130.971 585.143 292.571V347.429V402.286V420.571C585.143 471.086 544.229 512 493.714 512C463.429 512 438.857 487.429 438.857 457.143V310.857C438.857 280.571 463.429 256 493.714 256C506.057 256 517.714 258.4 528.457 262.857C513.829 145.6 413.829 54.8571 292.571 54.8571Z" fill="white"/>
</svg>
