<svg width="512" height="512" viewBox="0 0 512 512" fill="none" xmlns="http://www.w3.org/2000/svg">
<path d="M152.135 7.44589C162.034 17.992 162.834 35.8848 153.935 47.6159L81.942 142.412C77.5424 148.219 71.343 151.655 64.7437 151.773C58.1443 151.892 51.8449 148.93 47.1454 143.479L7.04931 96.0806C-2.24978 84.942 -2.24978 66.9307 7.04931 55.7921C16.3484 44.6535 31.6469 44.6535 40.946 55.7921L63.0438 81.9796L118.138 9.46032C127.038 -2.27075 142.136 -3.21871 152.035 7.32739L152.135 7.44589ZM152.135 197.039C162.034 207.585 162.834 225.478 153.935 237.209L81.942 332.005C77.5424 337.812 71.343 341.248 64.7437 341.366C58.1443 341.485 51.8449 338.523 47.1454 333.072L7.04931 285.673C-2.34977 274.535 -2.34977 256.524 7.04931 245.503C16.4484 234.483 31.6469 234.365 40.946 245.503L63.0438 271.691L118.138 199.172C127.038 187.441 142.136 186.493 152.035 197.039H152.135ZM224.028 75.9363C224.028 54.9626 238.327 38.0177 256.025 38.0177H480.003C497.701 38.0177 512 54.9626 512 75.9363C512 96.91 497.701 113.855 480.003 113.855H256.025C238.327 113.855 224.028 96.91 224.028 75.9363ZM224.028 265.529C224.028 244.556 238.327 227.611 256.025 227.611H480.003C497.701 227.611 512 244.556 512 265.529C512 286.503 497.701 303.448 480.003 303.448H256.025C238.327 303.448 224.028 286.503 224.028 265.529ZM160.034 455.122C160.034 434.148 174.333 417.204 192.031 417.204H480.003C497.701 417.204 512 434.148 512 455.122C512 476.096 497.701 493.041 480.003 493.041H192.031C174.333 493.041 160.034 476.096 160.034 455.122ZM48.0453 398.244C60.7745 398.244 72.9823 404.237 81.9831 414.903C90.984 425.57 96.0406 440.037 96.0406 455.122C96.0406 470.207 90.984 484.674 81.9831 495.341C72.9823 506.008 60.7745 512 48.0453 512C35.3162 512 23.1084 506.008 14.1075 495.341C5.10663 484.674 0.0499948 470.207 0.0499948 455.122C0.0499948 440.037 5.10663 425.57 14.1075 414.903C23.1084 404.237 35.3162 398.244 48.0453 398.244Z" fill="white"/>
</svg>
