<svg width="512" height="512" viewBox="0 0 512 512" fill="none" xmlns="http://www.w3.org/2000/svg">
<g clip-path="url(#clip0_1_10)">
<path d="M76.8 128C76.8 94.0523 87.5885 61.495 106.792 37.4903C125.996 13.4857 152.042 0 179.2 0C206.358 0 232.404 13.4857 251.608 37.4903C270.811 61.495 281.6 94.0523 281.6 128C281.6 161.948 270.811 194.505 251.608 218.51C232.404 242.514 206.358 256 179.2 256C152.042 256 125.996 242.514 106.792 218.51C87.5885 194.505 76.8 161.948 76.8 128ZM0 482.3C0 383.8 63.84 304 142.64 304H215.76C294.56 304 358.4 383.8 358.4 482.3C358.4 498.7 347.76 512 334.64 512H23.76C10.64 512 0 498.7 0 482.3ZM487.44 512H377.12C381.44 502.6 384 491.7 384 480V472C384 411.3 362.32 356.8 328.16 320.2C330.08 320.1 331.92 320 333.84 320H382.96C454.24 320 512 392.2 512 481.3C512 498.3 500.96 512 487.44 512ZM345.6 256C320.8 256 298.4 243.4 282.16 223.1C297.92 196.5 307.2 163.6 307.2 128C307.2 101.2 301.92 75.9 292.56 53.7C307.44 40.1 325.76 32 345.6 32C395.12 32 435.2 82.1 435.2 144C435.2 205.9 395.12 256 345.6 256Z" fill="white"/>
</g>
<defs>
<clipPath id="clip0_1_10">
<rect width="512" height="512" fill="white"/>
</clipPath>
</defs>
</svg>
